<svg width="16" height="16" viewBox="0 0 16 16" fill="none" xmlns="http://www.w3.org/2000/svg">
<path d="M9.1144 7.95924C10.8283 9.67264 12.458 11.3019 14.0954 12.9312C14.6157 13.4513 15.1436 13.9791 15.6639 14.4992C16.0618 14.9046 16.1 15.4018 15.7557 15.746C15.3961 16.1055 14.9217 16.0826 14.5086 15.6695C12.4504 13.6119 10.3998 11.562 8.34163 9.50436C8.24216 9.40492 8.15799 9.29018 8.03557 9.1525C7.89785 9.27489 7.79838 9.36667 7.70657 9.45846C5.63307 11.5314 3.55957 13.6043 1.48608 15.6772C1.23358 15.9296 0.958138 16.0749 0.590877 15.9602C0.25422 15.8531 0.0629382 15.616 0.00937928 15.2718C-0.0441797 14.9352 0.139451 14.6981 0.361338 14.4686C2.40423 12.434 4.43947 10.3993 6.47471 8.35699C6.58183 8.2499 6.70425 8.15812 6.84963 8.04338C6.7119 7.89805 6.62009 7.79861 6.52062 7.69917C4.48538 5.64156 2.42718 3.58395 0.368989 1.53398C0.139451 1.30451 -0.0288771 1.06739 0.0170306 0.730828C0.0629382 0.401916 0.246569 0.157145 0.567923 0.0577061C0.91223 -0.0493814 1.21063 0.0424079 1.47077 0.302478C2.70263 1.54163 3.94214 2.77314 5.17399 4.00465C6.0998 4.93019 7.0256 5.86338 7.98967 6.81952C8.09678 6.72008 8.19625 6.62829 8.29572 6.5365C10.3463 4.49419 12.3892 2.44423 14.4397 0.401916C14.608 0.241285 14.8146 0.0806535 15.0365 0.0271097C15.3885 -0.0646796 15.6945 0.0806535 15.8781 0.401916C16.0694 0.730828 16.0312 1.05974 15.794 1.35806C15.7251 1.44984 15.6333 1.52634 15.5568 1.60283C13.5368 3.62219 11.5169 5.64156 9.49697 7.66092C9.38985 7.77566 9.26743 7.8445 9.1144 7.95924Z" fill="#8D9091"/>
</svg>
